<?xml version="1.0" encoding="utf-8"?>
<!-- Generator: Adobe Illustrator 19.2.1, SVG Export Plug-In . SVG Version: 6.00 Build 0)  -->
<svg version="1.1" xmlns="http://www.w3.org/2000/svg" xmlns:xlink="http://www.w3.org/1999/xlink" x="0px" y="0px"
	 viewBox="0 0 652 652" style="enable-background:new 0 0 652 652;" xml:space="preserve">
<style type="text/css">
	.st0{display:none;}
	.st1{display:inline;}
	.st2{fill:#0C0407;}
	.st3{fill:#FF0000;}
</style>
<g id="Layer_1" class="st0">
	<g class="st1">
		<path class="st2" d="M240,670.9l1.6-0.1c0.1,0.6,0.3,1.2,0.5,1.6c0.3,0.4,0.7,0.7,1.3,1c0.6,0.3,1.2,0.4,2,0.4
			c0.7,0,1.2-0.1,1.7-0.3s0.9-0.5,1.1-0.8s0.4-0.7,0.4-1.1c0-0.4-0.1-0.8-0.4-1.1s-0.6-0.6-1.2-0.8c-0.3-0.1-1.1-0.3-2.3-0.6
			s-2-0.6-2.5-0.8c-0.6-0.3-1.1-0.7-1.4-1.2c-0.3-0.5-0.5-1-0.5-1.6c0-0.7,0.2-1.3,0.6-1.8s0.9-1,1.6-1.3s1.5-0.4,2.4-0.4
			c1,0,1.8,0.2,2.5,0.5c0.7,0.3,1.3,0.8,1.7,1.4s0.6,1.3,0.6,2l-1.6,0.1c-0.1-0.8-0.4-1.4-0.9-1.8c-0.5-0.4-1.3-0.6-2.2-0.6
			c-1,0-1.8,0.2-2.3,0.6c-0.5,0.4-0.7,0.8-0.7,1.4c0,0.5,0.2,0.8,0.5,1.1c0.3,0.3,1.2,0.6,2.6,0.9c1.4,0.3,2.3,0.6,2.9,0.8
			c0.8,0.3,1.3,0.8,1.7,1.3s0.5,1.1,0.5,1.8c0,0.7-0.2,1.3-0.6,1.9c-0.4,0.6-1,1.1-1.7,1.4c-0.7,0.3-1.6,0.5-2.5,0.5
			c-1.2,0-2.1-0.2-2.9-0.5c-0.8-0.3-1.4-0.9-1.9-1.5C240.3,672.6,240,671.8,240,670.9z"/>
		<path class="st2" d="M258.8,672.1l1.6,0.2c-0.3,1-0.7,1.7-1.4,2.2s-1.6,0.8-2.7,0.8c-1.4,0-2.4-0.4-3.2-1.3
			c-0.8-0.8-1.2-2-1.2-3.5c0-1.6,0.4-2.8,1.2-3.7s1.9-1.3,3.1-1.3c1.2,0,2.3,0.4,3.1,1.3s1.2,2,1.2,3.6c0,0.1,0,0.2,0,0.4h-7
			c0.1,1,0.3,1.8,0.9,2.4s1.2,0.8,2,0.8c0.6,0,1.1-0.2,1.5-0.5S258.6,672.7,258.8,672.1z M253.6,669.5h5.2c-0.1-0.8-0.3-1.4-0.6-1.8
			c-0.5-0.6-1.2-0.9-2-0.9c-0.7,0-1.3,0.2-1.8,0.7S253.6,668.7,253.6,669.5z"/>
		<path class="st2" d="M268.8,672.1l1.6,0.2c-0.3,1-0.7,1.7-1.4,2.2s-1.6,0.8-2.7,0.8c-1.4,0-2.4-0.4-3.2-1.3
			c-0.8-0.8-1.2-2-1.2-3.5c0-1.6,0.4-2.8,1.2-3.7s1.9-1.3,3.1-1.3c1.2,0,2.3,0.4,3.1,1.3s1.2,2,1.2,3.6c0,0.1,0,0.2,0,0.4h-7
			c0.1,1,0.3,1.8,0.9,2.4s1.2,0.8,2,0.8c0.6,0,1.1-0.2,1.5-0.5S268.6,672.7,268.8,672.1z M263.6,669.5h5.2c-0.1-0.8-0.3-1.4-0.6-1.8
			c-0.5-0.6-1.2-0.9-2-0.9c-0.7,0-1.3,0.2-1.8,0.7S263.7,668.7,263.6,669.5z"/>
		<path class="st2" d="M272.4,675.1v-12.9h1.6v7.3l3.7-3.8h2l-3.6,3.5l3.9,5.9h-2l-3.1-4.8l-1.1,1.1v3.7H272.4z"/>
		<path class="st2" d="M285.3,675.1l-5-12.9h1.8l3.3,9.4c0.3,0.8,0.5,1.5,0.7,2.1c0.2-0.7,0.4-1.4,0.7-2.1l3.5-9.4h1.7l-5,12.9
			H285.3z"/>
		<path class="st2" d="M298.8,672.1l1.6,0.2c-0.3,1-0.7,1.7-1.4,2.2s-1.6,0.8-2.7,0.8c-1.4,0-2.4-0.4-3.2-1.3
			c-0.8-0.8-1.2-2-1.2-3.5c0-1.6,0.4-2.8,1.2-3.7s1.9-1.3,3.1-1.3c1.2,0,2.3,0.4,3.1,1.3s1.2,2,1.2,3.6c0,0.1,0,0.2,0,0.4h-7
			c0.1,1,0.3,1.8,0.9,2.4s1.2,0.8,2,0.8c0.6,0,1.1-0.2,1.5-0.5S298.6,672.7,298.8,672.1z M293.6,669.5h5.2c-0.1-0.8-0.3-1.4-0.6-1.8
			c-0.5-0.6-1.2-0.9-2-0.9c-0.7,0-1.3,0.2-1.8,0.7S293.7,668.7,293.6,669.5z"/>
		<path class="st2" d="M308.5,671.7l1.6,0.2c-0.2,1.1-0.6,1.9-1.3,2.5c-0.7,0.6-1.6,0.9-2.6,0.9c-1.3,0-2.3-0.4-3.1-1.3
			c-0.8-0.8-1.2-2-1.2-3.6c0-1,0.2-1.9,0.5-2.6s0.8-1.3,1.5-1.7c0.7-0.4,1.4-0.6,2.2-0.6c1,0,1.8,0.3,2.5,0.8s1.1,1.2,1.2,2.2
			l-1.5,0.2c-0.1-0.6-0.4-1.1-0.8-1.4s-0.8-0.5-1.3-0.5c-0.8,0-1.4,0.3-1.9,0.9c-0.5,0.6-0.7,1.5-0.7,2.7c0,1.3,0.2,2.2,0.7,2.7
			s1.1,0.9,1.9,0.9c0.6,0,1.1-0.2,1.6-0.6S308.4,672.4,308.5,671.7z"/>
		<path class="st2" d="M314.9,673.7l0.2,1.4c-0.4,0.1-0.8,0.1-1.2,0.1c-0.6,0-1-0.1-1.3-0.3s-0.5-0.4-0.7-0.7s-0.2-0.9-0.2-1.9V667
			h-1.2v-1.2h1.2v-2.3l1.6-0.9v3.3h1.6v1.2h-1.6v5.5c0,0.5,0,0.7,0.1,0.9s0.1,0.2,0.3,0.3c0.1,0.1,0.3,0.1,0.5,0.1
			C314.4,673.7,314.6,673.7,314.9,673.7z"/>
		<path class="st2" d="M315.9,670.4c0-1.7,0.5-3,1.4-3.8c0.8-0.7,1.8-1,2.9-1c1.3,0,2.3,0.4,3.1,1.3s1.2,2,1.2,3.5
			c0,1.2-0.2,2.1-0.5,2.8c-0.4,0.7-0.9,1.2-1.6,1.6s-1.4,0.6-2.3,0.6c-1.3,0-2.4-0.4-3.2-1.3C316.3,673.2,315.9,672,315.9,670.4z
			 M317.5,670.4c0,1.2,0.3,2.1,0.8,2.7c0.5,0.6,1.2,0.9,2,0.9c0.8,0,1.4-0.3,2-0.9s0.8-1.5,0.8-2.7c0-1.2-0.3-2-0.8-2.6
			c-0.5-0.6-1.2-0.9-2-0.9c-0.8,0-1.4,0.3-2,0.9S317.5,669.2,317.5,670.4z"/>
		<path class="st2" d="M326.4,675.1v-9.3h1.4v1.4c0.4-0.7,0.7-1.1,1-1.3c0.3-0.2,0.6-0.3,1-0.3c0.5,0,1.1,0.2,1.6,0.5l-0.5,1.5
			c-0.4-0.2-0.8-0.3-1.2-0.3c-0.3,0-0.7,0.1-0.9,0.3s-0.5,0.5-0.6,0.9c-0.2,0.6-0.3,1.2-0.3,1.8v4.9H326.4z"/>
		<path class="st2" d="M332.6,675.1v-12.9h1.7v11.4h6.3v1.5H332.6z"/>
		<path class="st2" d="M341.9,670.4c0-1.7,0.5-3,1.4-3.8c0.8-0.7,1.8-1,2.9-1c1.3,0,2.3,0.4,3.1,1.3s1.2,2,1.2,3.5
			c0,1.2-0.2,2.1-0.5,2.8c-0.4,0.7-0.9,1.2-1.6,1.6s-1.4,0.6-2.3,0.6c-1.3,0-2.4-0.4-3.2-1.3C342.3,673.2,341.9,672,341.9,670.4z
			 M343.5,670.4c0,1.2,0.3,2.1,0.8,2.7c0.5,0.6,1.2,0.9,2,0.9c0.8,0,1.4-0.3,2-0.9s0.8-1.5,0.8-2.7c0-1.2-0.3-2-0.8-2.6
			c-0.5-0.6-1.2-0.9-2-0.9c-0.8,0-1.4,0.3-2,0.9S343.5,669.2,343.5,670.4z"/>
		<path class="st2" d="M352.2,675.8l1.5,0.2c0.1,0.5,0.2,0.8,0.5,1c0.4,0.3,0.9,0.4,1.6,0.4c0.7,0,1.3-0.1,1.7-0.4s0.7-0.7,0.8-1.2
			c0.1-0.3,0.1-1,0.1-2c-0.7,0.8-1.6,1.2-2.6,1.2c-1.3,0-2.3-0.5-3-1.4s-1.1-2-1.1-3.3c0-0.9,0.2-1.7,0.5-2.5
			c0.3-0.8,0.8-1.3,1.4-1.7s1.3-0.6,2.2-0.6c1.1,0,2,0.4,2.7,1.3v-1.1h1.5v8.1c0,1.5-0.1,2.5-0.4,3.1c-0.3,0.6-0.8,1.1-1.4,1.4
			c-0.6,0.4-1.4,0.5-2.4,0.5c-1.1,0-2-0.3-2.7-0.8C352.5,677.6,352.2,676.9,352.2,675.8z M353.5,670.2c0,1.2,0.2,2.1,0.7,2.7
			s1.1,0.8,1.8,0.8c0.7,0,1.3-0.3,1.8-0.8s0.7-1.4,0.7-2.6c0-1.1-0.3-2-0.8-2.6c-0.5-0.6-1.1-0.9-1.8-0.9c-0.7,0-1.3,0.3-1.8,0.9
			C353.7,668.3,353.5,669.1,353.5,670.2z"/>
		<path class="st2" d="M361.9,670.4c0-1.7,0.5-3,1.4-3.8c0.8-0.7,1.8-1,2.9-1c1.3,0,2.3,0.4,3.1,1.3s1.2,2,1.2,3.5
			c0,1.2-0.2,2.1-0.5,2.8c-0.4,0.7-0.9,1.2-1.6,1.6s-1.4,0.6-2.3,0.6c-1.3,0-2.4-0.4-3.2-1.3C362.3,673.2,361.9,672,361.9,670.4z
			 M363.5,670.4c0,1.2,0.3,2.1,0.8,2.7c0.5,0.6,1.2,0.9,2,0.9c0.8,0,1.4-0.3,2-0.9s0.8-1.5,0.8-2.7c0-1.2-0.3-2-0.8-2.6
			c-0.5-0.6-1.2-0.9-2-0.9c-0.8,0-1.4,0.3-2,0.9S363.5,669.2,363.5,670.4z"/>
		<path class="st2" d="M372.9,675.1v-1.8h1.8v1.8H372.9z"/>
		<path class="st2" d="M386.9,670.6l1.7,0.4c-0.4,1.4-1,2.5-1.9,3.2s-2.1,1.1-3.4,1.1c-1.4,0-2.5-0.3-3.4-0.8
			c-0.9-0.6-1.5-1.4-2-2.5c-0.5-1.1-0.7-2.2-0.7-3.5c0-1.3,0.3-2.5,0.8-3.5c0.5-1,1.2-1.8,2.2-2.3c0.9-0.5,2-0.8,3.1-0.8
			c1.3,0,2.4,0.3,3.3,1s1.5,1.6,1.8,2.8l-1.7,0.4c-0.3-0.9-0.7-1.6-1.3-2s-1.3-0.6-2.1-0.6c-1,0-1.8,0.2-2.5,0.7
			c-0.7,0.5-1.1,1.1-1.4,1.9c-0.3,0.8-0.4,1.6-0.4,2.5c0,1.1,0.2,2.1,0.5,2.9c0.3,0.8,0.8,1.4,1.5,1.8s1.4,0.6,2.2,0.6
			c1,0,1.8-0.3,2.4-0.8S386.7,671.6,386.9,670.6z"/>
		<path class="st2" d="M389.9,670.4c0-1.7,0.5-3,1.4-3.8c0.8-0.7,1.8-1,2.9-1c1.3,0,2.3,0.4,3.1,1.3s1.2,2,1.2,3.5
			c0,1.2-0.2,2.1-0.5,2.8c-0.4,0.7-0.9,1.2-1.6,1.6s-1.4,0.6-2.3,0.6c-1.3,0-2.4-0.4-3.2-1.3C390.3,673.2,389.9,672,389.9,670.4z
			 M391.5,670.4c0,1.2,0.3,2.1,0.8,2.7c0.5,0.6,1.2,0.9,2,0.9c0.8,0,1.4-0.3,2-0.9s0.8-1.5,0.8-2.7c0-1.2-0.3-2-0.8-2.6
			c-0.5-0.6-1.2-0.9-2-0.9c-0.8,0-1.4,0.3-2,0.9S391.5,669.2,391.5,670.4z"/>
		<path class="st2" d="M400.5,675.1v-9.3h1.4v1.3c0.3-0.5,0.7-0.8,1.2-1.1s1-0.4,1.7-0.4c0.7,0,1.3,0.1,1.7,0.4
			c0.4,0.3,0.8,0.7,0.9,1.2c0.7-1.1,1.7-1.6,2.9-1.6c0.9,0,1.6,0.3,2.1,0.8s0.7,1.3,0.7,2.4v6.4h-1.6v-5.9c0-0.6-0.1-1.1-0.2-1.4
			c-0.1-0.3-0.3-0.5-0.6-0.7s-0.6-0.3-0.9-0.3c-0.7,0-1.2,0.2-1.6,0.7c-0.4,0.4-0.7,1.1-0.7,2.1v5.4h-1.6V669c0-0.7-0.1-1.2-0.4-1.6
			s-0.7-0.5-1.3-0.5c-0.4,0-0.9,0.1-1.2,0.4c-0.4,0.2-0.7,0.6-0.8,1s-0.3,1.1-0.3,2v4.8H400.5z"/>
	</g>
</g>
<g id="Layer_2">
	<g>
		<path class="st3" d="M420.9,267.4h-20.2c-1.1,0-2,0.9-2,2v44.7h-20.5v-44.7c0-1.1-0.9-2-2-2H356c-1.1,0-2,0.9-2,2v115.1
			c0,1.1,0.9,2,2,2h20.2c1.1,0,2-0.9,2-2v-46.2h20.5v46.2c0,1.1,0.9,2,2,2h20.2c1.1,0,2-0.9,2-2V269.4
			C422.9,268.3,422,267.4,420.9,267.4"/>
		<path class="st3" d="M249.2,267.4h-9.9h-10.7c-1.1,0-2,0.8-2,1.8v53.5v28.6l0,0.1c0,3.9-0.9,7-2.7,9.2c-1.7,2.1-3.9,3.1-6.8,3.1
			c-2.9,0-5.1-1-6.8-3.1c-1.8-2.2-2.7-5.3-2.7-9.2l0-0.1l0-28.6h0v-53.5c0-1-0.9-1.8-2-1.8h-11.2h-9.4c-1.1,0-2,0.8-2,1.8v53.5v28.9
			c0,10.9,2.6,20.5,8.8,27c6.3,6.6,15.2,9.9,25.4,9.9c10.2,0,19.1-3.3,25.4-9.9c6.2-6.5,8.8-16.1,8.8-27v-28.9v-53.5
			C251.3,268.2,250.4,267.4,249.2,267.4"/>
		<path class="st3" d="M49.4,265.5L49.4,265.5c-10.2,0-19.1,3.3-25.4,9.9c-6.2,6.5-8.8,16.1-8.8,27v20.3v24.2v3v1.7
			c0,10.9,2.6,20.5,8.8,27c6.3,6.6,15.2,9.9,25.4,9.9c10.2,0,19.1-3.3,25.4-9.9c6.2-6.5,8.8-16.1,8.8-27v-4.7v-1.3V330v-5.5
			c0-1.1-0.9-2.1-2.1-2.1h-30c-1.1,0-2.2,0.9-2.2,2.1v20.1c0,1.1,1,2.1,2.2,2.1h7.8v0.5h0v4.1c0,4.1-1,7.4-2.8,9.8
			c-1.7,2.2-4.1,3.2-7.1,3.2c-3,0-5.4-1.1-7.1-3.2c-1.9-2.4-2.9-5.6-2.9-9.8v-4.4v-24.2v-20c0-4.1,1-7.4,2.9-9.8
			c1.7-2.2,4.1-3.2,7.1-3.2c3,0,5.4,1,7.1,3.2c1.9,2.4,2.8,5.6,2.8,9.8l0,4.6c0,1,0.9,1.8,2,1.8h20.2c1.1,0,2-0.8,2-1.8v-4.8
			c0-10.9-2.6-20.5-8.8-27C68.5,268.8,59.6,265.5,49.4,265.5"/>
		<path class="st3" d="M327.1,325c3.8-3.3,9.8-11.9,9.8-22.3c0-12.2-4.6-19.9-8.5-24.4c-6.2-7-15.1-10.9-25-10.9l-18.8,0h-13.5
			c-1.1,0-2,0.9-2,2v115.1c0,1.1,0.9,2,2,2h12.3l21.4,0c10.6,0,20.3-4.3,26.6-12.1c3.6-4.5,7.6-12.4,7.6-24.5
			C339,336.1,330.5,327.6,327.1,325 M293.2,291.6h10.2c3,0,5.2,0.9,6.8,2.7c1.6,1.8,2.4,4.7,2.4,8.4c0,3.8-0.8,6.8-2.5,8.7
			c-1.6,1.9-3.8,2.8-6.7,2.8h-10.2V291.6z M312.1,359.2c-1.7,2.1-4.1,3.1-7.3,3.1h-11.6v-24.6h11.6c3.1,0,5.4,1,7.2,3.2
			c1.9,2.3,2.8,5.2,2.8,9C314.8,353.9,313.9,357,312.1,359.2"/>
		<path class="st3" d="M153.8,335.2L153.8,335.2c2.1-1.5,4-3.2,5.7-5.2c4.2-4.7,9.1-13,9.1-25.7c0-12.4-4.9-20.7-9.1-25.4
			c-6.1-6.9-14.7-10.9-24.3-11.4v-0.1h-1.8c-0.1,0-0.2,0-0.3,0v0h-32c-1.1,0-2,0.9-2,2v115.1c0,1.1,0.9,2,2,2h20.2c1.1,0,2-0.9,2-2
			v-42.9h7.2l12.8,43.5c0.3,0.9,1,1.5,1.9,1.5h21.5c0.6,0,1.2-0.3,1.6-0.8c0.4-0.5,0.5-1.2,0.3-1.8L153.8,335.2z M141.3,314
			c-2,2.3-4.7,3.3-8.2,3.3h-9.8v-25.7h9.8c3.5,0,6.2,1.1,8.2,3.3c2.1,2.3,3,5.4,3,9.4C144.3,308.5,143.3,311.7,141.3,314"/>
		<path class="st3" d="M585.1,325c3.8-3.3,9.8-11.9,9.8-22.3c0-12.2-4.6-19.9-8.5-24.4c-6.2-7-15.1-10.9-25-10.9l-18.8,0h-13.5
			c-1.1,0-2,0.9-2,2v115.1c0,1.1,0.9,2,2,2h12.3l21.4,0c10.6,0,20.3-4.3,26.6-12.1c3.6-4.5,7.6-12.4,7.6-24.5
			C597,336.1,588.5,327.6,585.1,325 M551.2,291.6h10.2c3,0,5.2,0.9,6.8,2.7c1.6,1.8,2.4,4.7,2.4,8.4c0,3.8-0.8,6.8-2.5,8.7
			c-1.6,1.9-3.8,2.8-6.7,2.8h-10.2V291.6z M570.1,359.2c-1.7,2.1-4.1,3.1-7.3,3.1h-11.6v-24.6h11.6c3.1,0,5.4,1,7.2,3.2
			c1.9,2.3,2.8,5.2,2.8,9C572.8,353.9,571.9,357,570.1,359.2"/>
		<path class="st3" d="M507.1,267.4h-9.9h-10.7c-1.1,0-2,0.8-2,1.8v53.5v28.6l0,0.1c0,3.9-0.9,7-2.7,9.2c-1.7,2.1-3.9,3.1-6.8,3.1
			c-2.9,0-5.1-1-6.8-3.1c-1.8-2.2-2.7-5.3-2.7-9.2l0-0.1l0-28.6h0v-53.5c0-1-0.9-1.8-2-1.8h-11.2h-9.4c-1.1,0-2,0.8-2,1.8v53.5v28.9
			c0,10.9,2.6,20.5,8.8,27c6.3,6.6,15.2,9.9,25.4,9.9c10.2,0,19.1-3.3,25.4-9.9c6.2-6.5,8.8-16.1,8.8-27v-28.9v-53.5
			C509.1,268.2,508.2,267.4,507.1,267.4"/>
		<path class="st3" d="M604.8,270.2v-2.7h13.8v2.7h-5.3v13.4h-3.2v-13.4H604.8z M625.9,267.5l4.1,11.5l4.2-11.5h4.6v16.1h-3v-13
			l-4.5,13h-2.6l-4.5-13v13h-3v-16.1H625.9z"/>
	</g>
</g>
</svg>
